<svg width="29" height="30" viewBox="0 0 29 30" fill="none" xmlns="http://www.w3.org/2000/svg">
<path d="M28.4072 15.8763L12.6335 0V2.43947L25.9598 15.8684V15.8763L14.2441 27.5289L14.2283 27.5132L2.51248 15.8763H2.50458L8.25195 10.2632H5.76511L0.00195312 15.8684V15.8763L14.2283 30L28.423 15.8842L28.4072 15.8684V15.8763ZM12.6335 4.11316V6.55263L21.8151 15.8842L14.2441 23.4L6.66511 15.8763L12.4046 10.2632H9.90985L4.14669 15.8684L4.15458 15.8763L12.9809 24.6474L14.2204 25.8711L15.4756 24.6316L24.2704 15.8921L12.6335 4.11316ZM15.4441 11.2184L20.1335 15.8763L20.1414 15.8921L15.4598 20.5421L14.2046 21.7816L12.973 20.5579L8.25985 15.8763L12.973 11.1947L14.1967 9.97895L15.4441 11.2184ZM10.7625 15.8763L14.2362 19.3184L17.6783 15.8763L14.2046 12.4342L10.7546 15.8684L10.7625 15.8763Z" fill="#F5821E"/>
</svg>
