<svg width="30" height="31" viewBox="0 0 30 31" fill="none" xmlns="http://www.w3.org/2000/svg">
<path d="M0.00195312 18.76V0.5H30.002V18.76L11.262 8.52L0.00195312 18.76ZM0.00195312 20.74L11.402 11.37L30.002 20.34L11.402 13.68L0.00195312 20.74ZM11.402 15.57L0.00195312 22.85L11.402 17.58L30.002 22.95L11.402 15.57ZM0.00195312 25.53L11.362 19.75L30.002 25.35L11.362 21.76L0.00195312 25.53ZM11.452 24.17L0.00195312 27.86L11.452 26.18L30.002 28.01L11.452 24.17ZM0.00195312 30.34L11.582 29.06L30.002 30.5H11.582L0.00195312 30.34Z" fill="#23376C"/>
</svg>
