<svg width="40" height="40" viewBox="0 0 40 40" fill="none" xmlns="http://www.w3.org/2000/svg">
<path d="M3.33334 14.2817C3.33334 12.2881 4.1373 11.0663 5.80105 10.1404L12.6498 6.32899C16.2385 4.33184 18.0328 3.33325 20 3.33325C21.9672 3.33325 23.7615 4.33184 27.3502 6.32899L34.199 10.1404C35.8627 11.0663 36.6667 12.2881 36.6667 14.2817C36.6667 14.8223 36.6667 15.0926 36.6077 15.3148C36.2975 16.4823 35.2395 16.6666 34.2178 16.6666H5.78214C4.76045 16.6666 3.70254 16.4823 3.39237 15.3148C3.33334 15.0926 3.33334 14.8223 3.33334 14.2817Z" stroke="#5719F7" stroke-width="2"/>
<path d="M19.9932 11.6667H20.0082" stroke="#5719F7" stroke-width="2" stroke-linecap="round" stroke-linejoin="round"/>
<path d="M6.66666 16.6667V30.8334M13.3333 16.6667V30.8334" stroke="#5719F7" stroke-width="2"/>
<path d="M26.6667 16.6667V30.8334M33.3333 16.6667V30.8334" stroke="#5719F7" stroke-width="2"/>
<path d="M31.6667 30.8333H8.33334C5.57192 30.8333 3.33334 33.0718 3.33334 35.8333C3.33334 36.2934 3.70644 36.6666 4.16667 36.6666H35.8333C36.2935 36.6666 36.6667 36.2934 36.6667 35.8333C36.6667 33.0718 34.4282 30.8333 31.6667 30.8333Z" stroke="#5719F7" stroke-width="2"/>
</svg>
