<svg width="50" height="50" viewBox="0 0 50 50" fill="none" xmlns="http://www.w3.org/2000/svg">
<rect width="50" height="50" rx="6" fill="#476FB5"/>
<path d="M19.6667 19.6668L20.3485 20.3983L20.8961 19.8879L20.5606 19.2186L19.6667 19.6668ZM15.6564 11.6668L16.5504 11.2186C16.4145 10.9474 16.1627 10.7526 15.8661 10.689C15.5695 10.6254 15.26 10.6999 15.0248 10.8915L15.6564 11.6668ZM30.3329 30.3336L30.7811 29.4396L30.1119 29.1041L29.6015 29.6517L30.3329 30.3336ZM38.3329 34.3438L39.1083 34.9754C39.2999 34.7402 39.3744 34.4308 39.3108 34.1341C39.2472 33.8376 39.0523 33.5858 38.7811 33.4498L38.3329 34.3438ZM10.8036 19.2926C11.1925 21.2196 11.8404 23.1213 13.1598 25.4209L14.8946 24.4257C13.6848 22.3171 13.1116 20.6189 12.7641 18.8973L10.8036 19.2926ZM14.709 25.6548L20.3485 20.3983L18.9848 18.9353L13.3454 24.1918L14.709 25.6548ZM20.5606 19.2186L16.5504 11.2186L14.7625 12.1149L18.7727 20.1149L20.5606 19.2186ZM15.0248 10.8915C13.0086 12.5341 9.98213 15.2148 10.8036 19.2926L12.7641 18.8973C12.2044 16.1186 14.1758 14.1629 16.2881 12.442L15.0248 10.8915ZM13.1598 25.4209C14.4877 27.7354 16.189 29.9268 18.1322 31.8685L19.5464 30.4542C17.7198 28.6289 16.1286 26.5766 14.8946 24.4257L13.1598 25.4209ZM31.1024 37.2361C29.3808 36.8886 27.6827 36.3154 25.5741 35.1057L24.5788 36.8405C26.8784 38.1598 28.7797 38.8077 30.7068 39.1966L31.1024 37.2361ZM25.808 36.6549L31.0645 31.0154L29.6015 29.6517L24.3449 35.2913L25.808 36.6549ZM29.8848 31.2276L37.8848 35.2378L38.7811 33.4498L30.7811 29.4396L29.8848 31.2276ZM37.5577 33.7122C35.8368 35.8245 33.8811 37.7958 31.1024 37.2361L30.7068 39.1966C34.7845 40.0181 37.4656 36.9917 39.1083 34.9754L37.5577 33.7122ZM25.5741 35.1057C23.4232 33.8717 21.3718 32.2809 19.5464 30.4542L18.1322 31.8685C20.0739 33.8116 22.2642 35.5125 24.5788 36.8405L25.5741 35.1057Z" fill="white"/>
<path d="M26.3333 17H37M26.3333 17L30.3333 21M26.3333 17L30.3333 13" stroke="white" stroke-width="1.5"/>
</svg>
