<svg width="72" height="21" viewBox="0 0 72 21" fill="none" xmlns="http://www.w3.org/2000/svg">
<path d="M30.4018 0.425293H1.95169C1.01362 0.425293 0.253174 1.18574 0.253174 2.12381V18.7268C0.253174 19.6648 1.01362 20.4253 1.95169 20.4253H30.4018C31.3399 20.4253 32.1003 19.6648 32.1003 18.7268V2.12381C32.1003 1.18574 31.3399 0.425293 30.4018 0.425293Z" fill="black"/>
<path d="M18.6845 10.4255C18.6845 14.6353 15.2717 18.0477 11.0621 18.0477C6.85242 18.0477 3.44 14.6353 3.44 10.4255C3.44 6.216 6.85242 2.80322 11.0621 2.80322C15.2717 2.80322 18.6845 6.216 18.6845 10.4255Z" fill="#D9222A"/>
<path d="M21.2896 2.80322C19.3202 2.80322 17.5256 3.55039 16.1728 4.77633C15.8974 5.02615 15.6401 5.29597 15.4032 5.58295H16.9432C17.1537 5.83896 17.3477 6.10825 17.5242 6.39027H14.8222C14.6603 6.64947 14.5133 6.91876 14.383 7.19742H17.9632C18.0854 7.45892 18.1934 7.72803 18.2859 8.00439H14.0603C13.9722 8.26731 13.8981 8.53641 13.8388 8.81154H18.5072C18.6192 9.33171 18.6789 9.87169 18.6789 10.4255C18.6789 11.2719 18.5407 12.0863 18.2859 12.8467H14.0603C14.1527 13.1233 14.2606 13.3926 14.3829 13.6539H17.9632C17.8326 13.9326 17.6859 14.2018 17.5239 14.4612H14.8222C14.9986 14.7427 15.1928 15.0124 15.4032 15.2678H16.9428C16.7063 15.5553 16.4489 15.8255 16.173 16.0752C17.5258 17.3009 19.3202 18.0477 21.2896 18.0477C25.4993 18.0477 28.9121 14.6353 28.9121 10.4255C28.9121 6.21617 25.4993 2.80322 21.2896 2.80322Z" fill="#EE9F2D"/>
<path d="M27.9013 14.674C27.9013 14.5381 28.0114 14.4277 28.1474 14.4277C28.2835 14.4277 28.3935 14.5381 28.3935 14.674C28.3935 14.8099 28.2835 14.9203 28.1474 14.9203C28.0114 14.9203 27.9013 14.8099 27.9013 14.674ZM28.1474 14.8612C28.2507 14.8612 28.3346 14.7773 28.3346 14.674C28.3346 14.5705 28.2507 14.487 28.1474 14.487C28.0439 14.487 27.9604 14.5705 27.9604 14.674C27.9604 14.7773 28.0439 14.8612 28.1474 14.8612ZM28.1142 14.7823H28.0637V14.5659H28.155C28.1741 14.5659 28.1936 14.5659 28.2104 14.5767C28.2279 14.5886 28.2378 14.6094 28.2378 14.631C28.2378 14.6553 28.2235 14.6779 28.2003 14.6868L28.2401 14.7823H28.1842L28.1511 14.6967H28.1142V14.7823ZM28.1142 14.6595H28.1421C28.1525 14.6595 28.1635 14.6604 28.1729 14.6553C28.1812 14.65 28.1855 14.64 28.1855 14.6305C28.1855 14.6222 28.1803 14.6126 28.1732 14.6086C28.1644 14.6031 28.1504 14.6043 28.141 14.6043H28.1142V14.6595Z" fill="black"/>
<path d="M9.28183 11.2598C9.19496 11.2497 9.15674 11.2471 9.09712 11.2471C8.62808 11.2471 8.39064 11.4079 8.39064 11.7255C8.39064 11.9213 8.50653 12.0459 8.68735 12.0459C9.0244 12.0459 9.26732 11.725 9.28183 11.2598ZM9.88356 12.6609H9.19797L9.21371 12.335C9.00458 12.5926 8.72557 12.715 8.34641 12.715C7.89789 12.715 7.59039 12.3647 7.59039 11.8561C7.59039 11.0907 8.12525 10.6441 9.04333 10.6441C9.1371 10.6441 9.25741 10.6526 9.38056 10.6683C9.40621 10.5647 9.41293 10.5202 9.41293 10.4645C9.41293 10.2561 9.26874 10.1784 8.88215 10.1784C8.47734 10.1738 8.14347 10.2748 8.00635 10.32C8.01502 10.2678 8.121 9.6126 8.121 9.6126C8.53342 9.49176 8.80536 9.44629 9.11145 9.44629C9.82199 9.44629 10.1983 9.76529 10.1976 10.3683C10.199 10.5298 10.1723 10.7292 10.1306 10.9912C10.0587 11.4468 9.90462 12.4229 9.88356 12.6609Z" fill="black"/>
<path d="M7.24334 12.6609H6.41585L6.88984 9.68863L5.83145 12.6609H5.26758L5.19787 9.70562L4.69964 12.6609H3.92505L4.57208 8.79443H5.76192L5.83411 10.9586L6.55987 8.79443H7.88329L7.24334 12.6609Z" fill="black"/>
<path d="M22.3182 11.2598C22.2317 11.2497 22.1933 11.2471 22.1339 11.2471C21.665 11.2471 21.4276 11.4079 21.4276 11.7255C21.4276 11.9213 21.5433 12.0459 21.7241 12.0459C22.0612 12.0459 22.3043 11.725 22.3182 11.2598ZM22.9205 12.6609H22.2349L22.2505 12.335C22.0413 12.5926 21.7621 12.715 21.3833 12.715C20.9346 12.715 20.6275 12.3647 20.6275 11.8561C20.6275 11.0907 21.162 10.6441 22.0803 10.6441C22.174 10.6441 22.2942 10.6526 22.4171 10.6683C22.4428 10.5647 22.4495 10.5202 22.4495 10.4645C22.4495 10.2561 22.3055 10.1784 21.9189 10.1784C21.5141 10.1738 21.1806 10.2748 21.0429 10.32C21.0516 10.2678 21.1579 9.6126 21.1579 9.6126C21.5704 9.49176 21.8421 9.44629 22.1478 9.44629C22.8587 9.44629 23.2351 9.76529 23.2344 10.3683C23.2358 10.5298 23.2091 10.7292 23.1673 10.9912C23.0958 11.4468 22.9414 12.4229 22.9205 12.6609Z" fill="black"/>
<path d="M13.556 12.6131C13.3295 12.6844 13.1529 12.715 12.9615 12.715C12.5385 12.715 12.3076 12.4719 12.3076 12.0242C12.3016 11.8854 12.3684 11.5198 12.421 11.1861C12.4688 10.8924 12.7798 9.04053 12.7798 9.04053H13.6023L13.5063 9.51647H14.0031L13.8909 10.2721H13.3923C13.2968 10.8701 13.1607 11.615 13.1591 11.7137C13.1591 11.8758 13.2456 11.9466 13.4424 11.9466C13.5367 11.9466 13.6098 11.937 13.6655 11.9169L13.556 12.6131Z" fill="black"/>
<path d="M16.0837 12.5877C15.8011 12.674 15.5285 12.7158 15.2396 12.715C14.3188 12.7142 13.8388 12.2333 13.8388 11.3124C13.8388 10.2375 14.4494 9.44629 15.2783 9.44629C15.9565 9.44629 16.3896 9.88932 16.3896 10.5841C16.3896 10.8147 16.3599 11.0397 16.2882 11.3575H14.6502C14.5948 11.8136 14.8868 12.0036 15.3652 12.0036C15.6596 12.0036 15.9251 11.9429 16.2204 11.8056L16.0837 12.5877ZM15.6214 10.7235C15.626 10.6581 15.7086 10.1623 15.2387 10.1623C14.9766 10.1623 14.7893 10.3621 14.713 10.7235H15.6214Z" fill="black"/>
<path d="M10.3776 10.5105C10.3776 10.9082 10.5704 11.1825 11.0078 11.3884C11.3429 11.5459 11.3947 11.5926 11.3947 11.7354C11.3947 11.9314 11.247 12.0199 10.9195 12.0199C10.6727 12.0199 10.443 11.9813 10.1782 11.8959C10.1782 11.8959 10.0693 12.5889 10.0644 12.622C10.2525 12.663 10.4202 12.7011 10.9255 12.715C11.7986 12.715 12.2019 12.3826 12.2019 11.6641C12.2019 11.232 12.0331 10.9785 11.6185 10.7879C11.2716 10.6287 11.2318 10.5931 11.2318 10.4463C11.2318 10.2763 11.3692 10.1896 11.6368 10.1896C11.7992 10.1896 12.021 10.2069 12.2312 10.2368L12.3491 9.50751C12.1348 9.47354 11.81 9.44629 11.6208 9.44629C10.6951 9.44629 10.3747 9.92983 10.3776 10.5105Z" fill="black"/>
<path d="M20.1033 9.52896C20.3331 9.52896 20.5474 9.58929 20.8427 9.73791L20.978 8.89874C20.8568 8.85115 20.4301 8.57178 20.0686 8.57178C19.5148 8.57178 19.0467 8.84655 18.7174 9.30001C18.2372 9.14096 18.0398 9.46244 17.7977 9.78268L17.5827 9.83275C17.599 9.7273 17.6137 9.62256 17.6088 9.51658H16.8488C16.745 10.4897 16.561 11.4754 16.417 12.4497L16.3795 12.6609H17.2073C17.3455 11.7632 17.4212 11.1884 17.4672 10.7993L17.779 10.6259C17.8255 10.4527 17.9713 10.3941 18.2637 10.4012C18.2255 10.6065 18.205 10.8223 18.205 11.0459C18.205 12.0746 18.76 12.7151 19.6509 12.7151C19.8803 12.7151 20.0773 12.6848 20.3821 12.6022L20.5277 11.7208C20.2535 11.8557 20.0284 11.9193 19.8246 11.9193C19.3435 11.9193 19.0525 11.5642 19.0525 10.9773C19.0525 10.1259 19.4854 9.52896 20.1033 9.52896Z" fill="black"/>
<path d="M7.47772 12.4313H6.65005L7.12439 9.45945L6.06601 12.4313H5.50196L5.43225 9.47643L4.93402 12.4313H4.15942L4.80645 8.56543H5.9963L6.02974 10.9587L6.83246 8.56543H8.11767L7.47772 12.4313Z" fill="white"/>
<path d="M27.1087 8.79443L26.9252 9.91156C26.6989 9.61379 26.4558 9.39829 26.1349 9.39829C25.7173 9.39829 25.3373 9.71482 25.0885 10.1807C24.7421 10.1088 24.3838 9.98693 24.3838 9.98693L24.3837 9.98976C24.4116 9.72932 24.4228 9.57044 24.4203 9.51648H23.6602C23.5567 10.4896 23.3727 11.4753 23.2288 12.4496L23.191 12.6609H24.0186C24.1305 11.9349 24.2161 11.3321 24.2791 10.8541C24.5618 10.5986 24.7034 10.3756 24.9891 10.3905C24.8626 10.6964 24.7885 11.0489 24.7885 11.4103C24.7885 12.1964 25.1862 12.715 25.7878 12.715C26.091 12.715 26.3237 12.6104 26.5507 12.368L26.5119 12.6603H27.2947L27.9249 8.79443H27.1087ZM26.0739 11.9342C25.7922 11.9342 25.6499 11.7258 25.6499 11.3144C25.6499 10.6964 25.9162 10.2582 26.2917 10.2582C26.576 10.2582 26.7299 10.4749 26.7299 10.8742C26.7299 11.4975 26.4594 11.9342 26.0739 11.9342Z" fill="black"/>
<path d="M9.51585 11.031C9.42916 11.0209 9.39076 11.0182 9.33131 11.0182C8.86228 11.0182 8.62502 11.1791 8.62502 11.4967C8.62502 11.6922 8.7409 11.8171 8.92137 11.8171C9.25877 11.8171 9.5017 11.4961 9.51585 11.031ZM10.1179 12.4315H9.43234L9.44791 12.1062C9.23896 12.3633 8.95959 12.4862 8.58078 12.4862C8.13209 12.4862 7.82477 12.1359 7.82477 11.6272C7.82477 10.8615 8.35945 10.4153 9.2777 10.4153C9.37148 10.4153 9.49179 10.4238 9.61475 10.4395C9.64041 10.3358 9.64713 10.2914 9.64713 10.2353C9.64713 10.0269 9.50311 9.94959 9.11652 9.94959C8.71153 9.94499 8.37785 10.046 8.24055 10.0906C8.24922 10.0386 8.3552 9.38413 8.3552 9.38413C8.76744 9.26276 9.03974 9.21729 9.34547 9.21729C10.0562 9.21729 10.4327 9.53646 10.432 10.1389C10.4332 10.3011 10.4063 10.5004 10.3648 10.762C10.2931 11.2175 10.1388 12.1941 10.1179 12.4315Z" fill="white"/>
<path d="M21.2214 8.66956L21.0858 9.50891C20.7907 9.36047 20.5763 9.29996 20.3466 9.29996C19.7288 9.29996 19.2957 9.89692 19.2957 10.7483C19.2957 11.3352 19.5869 11.6901 20.0678 11.6901C20.2716 11.6901 20.4965 11.6267 20.7707 11.4916L20.6255 12.3727C20.3204 12.4558 20.1237 12.4861 19.894 12.4861C19.0034 12.4861 18.4482 11.8456 18.4482 10.8169C18.4482 9.43478 19.215 8.46875 20.3118 8.46875C20.6731 8.46875 21.1 8.62197 21.2214 8.66956Z" fill="white"/>
<path d="M22.553 11.031C22.4663 11.0209 22.428 11.0182 22.3684 11.0182C21.8996 11.0182 21.6621 11.1791 21.6621 11.4967C21.6621 11.6922 21.778 11.8171 21.9587 11.8171C22.2957 11.8171 22.5388 11.4961 22.553 11.031ZM23.155 12.4315H22.4693L22.485 12.1062C22.2759 12.3633 21.9967 12.4862 21.6179 12.4862C21.1694 12.4862 20.8619 12.1359 20.8619 11.6272C20.8619 10.8615 21.3967 10.4153 22.3146 10.4153C22.4086 10.4153 22.5287 10.4238 22.6519 10.4395C22.6773 10.3358 22.6842 10.2914 22.6842 10.2353C22.6842 10.0269 22.5402 9.94959 22.1536 9.94959C21.7488 9.94499 21.415 10.046 21.2777 10.0906C21.2863 10.0386 21.3925 9.38413 21.3925 9.38413C21.8047 9.26276 22.0768 9.21729 22.3826 9.21729C23.0935 9.21729 23.4698 9.53646 23.4689 10.1389C23.4703 10.3011 23.4436 10.5004 23.4019 10.762C23.3304 11.2175 23.1757 12.1941 23.155 12.4315Z" fill="white"/>
<path d="M13.7985 12.3839C13.5719 12.4552 13.3953 12.4862 13.204 12.4862C12.781 12.4862 12.5501 12.2431 12.5501 11.7954C12.5443 11.6562 12.6111 11.291 12.6637 10.9573C12.7113 10.6633 13.0223 8.81152 13.0223 8.81152H13.8447L13.7488 9.28764H14.1709L14.0586 10.0429H13.635C13.5395 10.6413 13.4031 11.3857 13.4017 11.4846C13.4017 11.6472 13.4884 11.7174 13.6849 11.7174C13.7792 11.7174 13.8521 11.7082 13.908 11.688L13.7985 12.3839Z" fill="white"/>
<path d="M16.3181 12.3588C16.0357 12.4452 15.7627 12.4867 15.4739 12.4862C14.5532 12.4853 14.0732 12.0044 14.0732 11.0835C14.0732 10.0083 14.6838 9.21729 15.5127 9.21729C16.1908 9.21729 16.624 9.66014 16.624 10.3553C16.624 10.586 16.5942 10.8111 16.5228 11.1286H14.8848C14.8294 11.5848 15.1213 11.775 15.5997 11.775C15.894 11.775 16.1597 11.7141 16.4548 11.5764L16.3181 12.3588ZM15.8556 10.4942C15.8605 10.4289 15.943 9.93296 15.4729 9.93296C15.211 9.93296 15.0236 10.1332 14.9474 10.4942H15.8556Z" fill="white"/>
<path d="M10.6118 10.2817C10.6118 10.6794 10.8046 10.9533 11.242 11.1596C11.5771 11.3171 11.6289 11.364 11.6289 11.5066C11.6289 11.7026 11.481 11.7911 11.1539 11.7911C10.9069 11.7911 10.6772 11.7525 10.4122 11.667C10.4122 11.667 10.3037 12.3601 10.2988 12.3932C10.4865 12.4342 10.6544 12.4717 11.1597 12.4862C12.033 12.4862 12.4361 12.1538 12.4361 11.4354C12.4361 11.0032 12.2675 10.7497 11.8527 10.5591C11.506 10.3995 11.4658 10.3645 11.4658 10.2175C11.4658 10.0476 11.6036 9.96021 11.871 9.96021C12.0332 9.96021 12.2551 9.97808 12.4656 10.008L12.5833 9.2785C12.3692 9.24453 12.0443 9.21729 11.8552 9.21729C10.9293 9.21729 10.6091 9.70048 10.6118 10.2817Z" fill="white"/>
<path d="M27.5313 12.4313H26.7484L26.7874 12.1387C26.5604 12.3814 26.3277 12.486 26.0244 12.486C25.4229 12.486 25.0253 11.9674 25.0253 11.1813C25.0253 10.1355 25.6419 9.25386 26.3718 9.25386C26.6927 9.25386 26.9356 9.38496 27.1617 9.68256L27.3454 8.56543H28.1616L27.5313 12.4313ZM26.3107 11.7048C26.6961 11.7048 26.9668 11.2682 26.9668 10.6452C26.9668 10.2459 26.8127 10.0292 26.5283 10.0292C26.1531 10.0292 25.8864 10.4672 25.8864 11.0854C25.8864 11.4968 26.029 11.7048 26.3107 11.7048Z" fill="white"/>
<path d="M23.9029 9.28734C23.7992 10.2604 23.6152 11.2461 23.4714 12.2199L23.4335 12.4312H24.2612C24.5572 10.5087 24.6289 10.1332 25.0929 10.1803C25.1669 9.78681 25.3046 9.44215 25.4072 9.26823C25.0606 9.19604 24.867 9.3919 24.6136 9.76398C24.6336 9.60316 24.6703 9.44693 24.663 9.28734H23.9029Z" fill="white"/>
<path d="M17.0898 9.28734C16.9859 10.2604 16.8019 11.2461 16.658 12.2199L16.6204 12.4312H17.4484C17.744 10.5087 17.8155 10.1332 18.2794 10.1803C18.3537 9.78681 18.4914 9.44215 18.5936 9.26823C18.2474 9.19604 18.0537 9.3919 17.8005 9.76398C17.8205 9.60316 17.8567 9.44693 17.8498 9.28734H17.0898Z" fill="white"/>
<path d="M27.9013 12.1852C27.9013 12.0488 28.0115 11.939 28.1474 11.939C28.2835 11.939 28.3935 12.0488 28.3935 12.1852C28.3935 12.321 28.2835 12.4314 28.1474 12.4314C28.0115 12.4314 27.9013 12.321 27.9013 12.1852ZM28.1474 12.3723C28.2509 12.3723 28.3344 12.2884 28.3344 12.1852C28.3344 12.0819 28.2509 11.9981 28.1474 11.9981C28.0441 11.9981 27.9602 12.0819 27.9602 12.1852C27.9602 12.2884 28.0441 12.3723 28.1474 12.3723ZM28.1142 12.2928H28.0637V12.077H28.1552C28.1741 12.077 28.1938 12.0773 28.2102 12.0878C28.2279 12.0998 28.238 12.1203 28.238 12.1419C28.238 12.1663 28.2237 12.1891 28.2003 12.1978L28.2403 12.2928H28.1842L28.1511 12.2075H28.1142V12.2928ZM28.1142 12.1706H28.1419C28.1524 12.1706 28.1637 12.1713 28.1729 12.1663C28.1812 12.161 28.1855 12.1509 28.1855 12.1414C28.1855 12.1334 28.1805 12.1239 28.1732 12.1191C28.1646 12.1141 28.1502 12.1155 28.1409 12.1155H28.1142V12.1706Z" fill="white"/>
<g clip-path="url(#clip0_1_2309)">
<path d="M70.249 0.425293H41.7989C40.8608 0.425293 40.1003 1.18574 40.1003 2.12381V18.7268C40.1003 19.6648 40.8608 20.4253 41.7989 20.4253H70.249C71.187 20.4253 71.9475 19.6648 71.9475 18.7268V2.12381C71.9475 1.18574 71.187 0.425293 70.249 0.425293Z" fill="#0E4595"/>
<path d="M51.9128 14.6175L53.3294 6.30493H55.5952L54.1776 14.6175H51.9128Z" fill="white"/>
<path d="M62.3639 6.48426C61.915 6.31585 61.2116 6.13513 60.3332 6.13513C58.0944 6.13513 56.5173 7.26256 56.5039 8.8784C56.4913 10.0728 57.6298 10.7392 58.4892 11.1368C59.3711 11.5442 59.6676 11.8041 59.6634 12.1679C59.6578 12.7251 58.9592 12.9797 58.3079 12.9797C57.401 12.9797 56.9192 12.8537 56.1752 12.5433L55.8832 12.4112L55.5652 14.2721C56.0944 14.5041 57.073 14.7052 58.0891 14.7156C60.4708 14.7156 62.0169 13.601 62.0345 11.8756C62.0431 10.93 61.4394 10.2103 60.1322 9.61704C59.3403 9.2325 58.8552 8.9759 58.8604 8.58651C58.8604 8.24099 59.2709 7.87152 60.1579 7.87152C60.8989 7.86002 61.4355 8.02159 61.8537 8.18999L62.0568 8.28592L62.3639 6.48426Z" fill="white"/>
<path d="M68.1936 6.30493H66.4428C65.9004 6.30493 65.4945 6.45296 65.2563 6.99427L61.8914 14.6122H64.2706C64.2706 14.6122 64.6596 13.5879 64.7476 13.3631C65.0076 13.3631 67.3189 13.3666 67.6494 13.3666C67.7171 13.6576 67.925 14.6122 67.925 14.6122H70.0274L68.1936 6.30493ZM65.4158 11.6725C65.6032 11.1936 66.3185 9.34884 66.3185 9.34884C66.3051 9.37096 66.5045 8.86756 66.6189 8.55546L66.7721 9.27215C66.7721 9.27215 67.2059 11.2564 67.2966 11.6725H65.4158V11.6725Z" fill="white"/>
<path d="M42.0492 6.30493L42.0203 6.47793C42.9158 6.69473 43.7158 7.00844 44.4161 7.39876L46.4265 14.6043L48.8238 14.6015L52.3908 6.30493H49.9908L47.7725 11.9736L47.5361 10.8216C47.5252 10.7864 47.5133 10.7511 47.5012 10.7158L46.7298 7.00673C46.5927 6.48036 46.1949 6.32328 45.7028 6.30493H42.0492Z" fill="white"/>
</g>
<defs>
<clipPath id="clip0_1_2309">
<rect width="31.8471" height="20" fill="white" transform="translate(40.1003 0.425293)"/>
</clipPath>
</defs>
</svg>
