<svg width="14" height="14" viewBox="0 0 14 14" fill="none" xmlns="http://www.w3.org/2000/svg">
<path d="M1.45954 6.99992C1.45954 4.38755 1.45954 3.08137 2.2711 2.26981C3.08266 1.45825 4.38884 1.45825 7.00121 1.45825C9.61355 1.45825 10.9198 1.45825 11.7313 2.26981C12.5429 3.08137 12.5429 4.38755 12.5429 6.99992C12.5429 9.61226 12.5429 10.9185 11.7313 11.7301C10.9198 12.5416 9.61355 12.5416 7.00121 12.5416C4.38884 12.5416 3.08266 12.5416 2.2711 11.7301C1.45954 10.9185 1.45954 9.61226 1.45954 6.99992Z" fill="#476FB5"/>
<path d="M4.66448 8.02071C4.66448 8.02071 5.59782 8.553 6.06448 9.33321C6.06448 9.33321 7.46448 6.27071 9.33115 5.24988" stroke="white" stroke-linecap="round" stroke-linejoin="round"/>
</svg>
