<svg width="40" height="40" viewBox="0 0 40 40" fill="none" xmlns="http://www.w3.org/2000/svg">
<path d="M19.997 3.33325C14.9841 3.33325 11.7337 6.69824 7.88954 7.92475C6.32651 8.42347 5.54497 8.67282 5.22869 9.02434C4.91241 9.37585 4.81979 9.8895 4.63456 10.9168C2.65241 21.9099 6.98486 32.0733 17.3172 36.0291C18.4274 36.4541 18.9824 36.6666 20.0025 36.6666C21.0225 36.6666 21.5777 36.4541 22.6877 36.0291C33.0194 32.0731 37.3477 21.9099 35.365 10.9168C35.1797 9.88932 35.087 9.37559 34.7707 9.02407C34.4544 8.67255 33.6729 8.42334 32.1099 7.9249C28.2642 6.6985 25.0102 3.33325 19.997 3.33325Z" stroke="#13B98E" stroke-width="2" stroke-linecap="round" stroke-linejoin="round"/>
<path d="M15 21.6667C15 21.6667 16.6667 21.6667 18.3333 25C18.3333 25 23.6275 16.6667 28.3333 15" stroke="#13B98E" stroke-width="2" stroke-linecap="round" stroke-linejoin="round"/>
</svg>
