<svg width="40" height="40" viewBox="0 0 40 40" fill="none" xmlns="http://www.w3.org/2000/svg">
<path d="M20 15C18.159 15 16.6667 16.1193 16.6667 17.5C16.6667 18.8807 18.159 20 20 20C21.841 20 23.3334 21.1193 23.3334 22.5C23.3334 23.8807 21.841 25 20 25M20 15C21.4514 15 22.686 15.6957 23.1437 16.6667M20 15V12.5M20 25C18.5487 25 17.314 24.3043 16.8564 23.3333M20 25V27.5" stroke="#EFB013" stroke-width="2" stroke-linejoin="round"/>
<path d="M5.02012 8.33325V7.08325H4.02972L3.80324 8.0474L5.02012 8.33325ZM19.9966 36.6667L19.7343 37.8889L19.9966 37.9453L20.259 37.8889L19.9966 36.6667ZM34.9733 8.33325L36.1901 8.0474L35.9636 7.08325H34.9733V8.33325ZM19.9966 2.08325C16.7185 2.08325 14.1609 3.503 11.9029 4.7362C9.58217 6.00368 7.56299 7.08325 5.02012 7.08325V9.58325C8.29044 9.58325 10.8445 8.16282 13.1012 6.9303C15.4207 5.6635 17.4448 4.58325 19.9966 4.58325V2.08325ZM20.259 35.4446C9.44737 33.1246 3.03062 22.2688 6.23701 8.6191L3.80324 8.0474C0.353947 22.7311 7.24599 35.2091 19.7343 37.8889L20.259 35.4446ZM19.9966 4.58325C22.5606 4.58325 24.5871 5.6641 26.903 6.93007C29.157 8.1622 31.7056 9.58325 34.9733 9.58325V7.08325C32.4343 7.08325 30.4215 6.0043 28.1021 4.73643C25.8446 3.5024 23.2861 2.08325 19.9966 2.08325V4.58325ZM20.259 37.8889C32.7473 35.2091 39.6395 22.7311 36.1901 8.0474L33.7565 8.6191C36.9628 22.2688 30.546 33.1246 19.7343 35.4446L20.259 37.8889Z" fill="#EFB013"/>
</svg>
