<svg width="25" height="25" viewBox="0 0 25 25" fill="none" xmlns="http://www.w3.org/2000/svg">
<path d="M2.29907 5.14185L9.21209 9.06647C11.7378 10.5003 12.8604 10.5003 15.3861 9.06647L22.2991 5.14185" stroke="#292929" stroke-width="1.5" stroke-linejoin="round"/>
<path d="M10.7991 19.6418C10.3328 19.6357 9.86589 19.6268 9.3979 19.615C6.2494 19.5359 4.67515 19.4963 3.54403 18.3602C2.4129 17.2241 2.38021 15.6905 2.31484 12.6232C2.29382 11.6369 2.29381 10.6565 2.31483 9.67028C2.38021 6.60298 2.41289 5.06933 3.54402 3.93324C4.67515 2.79715 6.2494 2.75758 9.39789 2.67843C11.3384 2.62965 13.2598 2.62966 15.2003 2.67844C18.3488 2.75759 19.923 2.79717 21.0541 3.93326C22.1853 5.06934 22.218 6.60299 22.2833 9.67029C22.293 10.1244 22.2982 10.3383 22.299 10.6418" stroke="#292929" stroke-width="1.5" stroke-linecap="round" stroke-linejoin="round"/>
<path d="M19.2991 17.1418C19.2991 17.9702 18.6275 18.6418 17.7991 18.6418C16.9707 18.6418 16.2991 17.9702 16.2991 17.1418C16.2991 16.3134 16.9707 15.6418 17.7991 15.6418C18.6275 15.6418 19.2991 16.3134 19.2991 17.1418ZM19.2991 17.1418V17.6418C19.2991 18.4702 19.9707 19.1418 20.7991 19.1418C21.6275 19.1418 22.2991 18.4702 22.2991 17.6418V17.1418C22.2991 14.6565 20.2844 12.6418 17.7991 12.6418C15.3138 12.6418 13.2991 14.6565 13.2991 17.1418C13.2991 19.6271 15.3138 21.6418 17.7991 21.6418" stroke="#292929" stroke-width="1.5" stroke-linecap="round" stroke-linejoin="round"/>
</svg>
