<svg width="24" height="25" viewBox="0 0 24 25" fill="none" xmlns="http://www.w3.org/2000/svg">
<g clip-path="url(#clip0_1_2264)">
<path d="M0.753052 12.8432C0.753052 17.7557 3.90305 21.9182 8.25305 23.4557V2.23071C3.90305 3.76821 0.753052 7.93071 0.753052 12.8432Z" fill="#83BF4F"/>
<path d="M23.2547 12.8432C23.2547 7.93071 20.1422 3.76821 15.7547 2.23071V23.4557C20.1422 21.9182 23.2547 17.7557 23.2547 12.8432Z" fill="#83BF4F"/>
<path d="M8.25385 23.456C9.41635 23.8685 10.6913 24.0935 12.0038 24.0935C13.3163 24.0935 14.5913 23.8685 15.7538 23.456V2.23101C14.5913 1.81851 13.3163 1.59351 12.0038 1.59351C10.6913 1.59351 9.41635 1.81851 8.25385 2.23101V23.456Z" fill="white"/>
</g>
<defs>
<clipPath id="clip0_1_2264">
<rect width="24" height="24" fill="white" transform="translate(0 0.843262)"/>
</clipPath>
</defs>
</svg>
