<svg width="235" height="40" viewBox="0 0 235 40" fill="none" xmlns="http://www.w3.org/2000/svg">
<path d="M71.767 33.312H66.0645V6.68832H71.767V17.2604H76.0615L82.7966 6.68832H89.1446L80.5086 19.654L89.6373 33.312H83.3247L76.0615 22.4349H71.767V33.312Z" fill="white"/>
<path d="M99.3058 33.3118H93.4155L104.293 6.68817H110.453L121.295 33.3118H115.404L113.468 28.325H101.301L99.3176 33.3118H99.3058ZM103.072 23.6081H111.673L107.942 14.0569C107.672 13.3294 107.484 12.6489 107.367 11.9683C107.214 12.7662 107.027 13.4468 106.757 14.0569L103.072 23.6081Z" fill="white"/>
<path d="M151.579 6.6765H156.871V33.3001H151.168V16.9082L144.128 27.5976H140.819L133.779 16.873V33.3119H128.076V6.68821H133.368L142.497 20.5339L151.59 6.68821L151.579 6.6765Z" fill="white"/>
<path d="M169.543 33.3119H163.652L174.529 6.68825H180.69L191.532 33.3119H185.641L183.705 28.3251H171.537L169.554 33.3119H169.543ZM173.309 23.6082H181.91L178.179 14.057C177.909 13.3295 177.721 12.6489 177.604 11.9684C177.451 12.7663 177.263 13.4468 176.993 14.057L173.309 23.6082Z" fill="white"/>
<path d="M204.006 33.3119H198.303V6.68825H209.262C212.043 6.68825 214.355 7.21628 216.49 8.47178C218.579 9.72729 219.834 12.1209 219.834 15.3594C219.834 19.3958 217.898 22.0124 214.015 23.2679L221.97 33.3119H215.387L208.195 23.9954H204.006V33.3119ZM204.006 11.7102V19.2433H209.521C212.102 19.2433 214.003 18.023 214.003 15.4768C214.003 12.9306 212.137 11.7102 209.521 11.7102H204.006Z" fill="white"/>
<path d="M228.962 6.6765H234.665V33.3001H228.962V6.6765Z" fill="white"/>
<path d="M33.5126 39.9882C32.6561 39.9882 31.8113 39.6597 31.1542 39.0144L16.0647 23.9249C14.7623 22.6224 14.7623 20.5221 16.0647 19.2197C17.3672 17.9173 19.4792 17.9173 20.7699 19.2197L35.8594 34.3092C37.1618 35.6116 37.1618 37.7119 35.8594 39.0144C35.214 39.6597 34.3575 39.9882 33.5009 39.9882H33.5126Z" fill="white"/>
<path d="M4.28743 19.7595C3.43088 19.7595 2.58606 19.4309 1.92897 18.7856C0.62654 17.4831 0.62654 15.3828 1.92897 14.0804L10.917 5.09243C12.2194 3.78999 14.3314 3.78999 15.6221 5.09243C16.9246 6.39486 16.9246 8.4952 15.6221 9.79763L6.63416 18.7856C5.98881 19.4309 5.13226 19.7595 4.2757 19.7595H4.28743Z" fill="white"/>
<path d="M36.342 0H25.9695C24.1273 0 22.6371 1.49017 22.6371 3.33235C22.6371 5.17453 24.1273 6.6647 25.9695 6.6647H28.633L0.976826 34.3209C-0.325609 35.6234 -0.325609 37.7237 0.976826 39.0261C1.62218 39.6714 2.47873 40 3.33528 40C4.19184 40 5.03665 39.6714 5.69374 39.0261L33.0214 11.6984V13.7049C33.0214 15.5471 34.5116 17.0372 36.3538 17.0372C38.196 17.0372 39.6861 15.5471 39.6861 13.7049V3.33235C39.6861 1.49017 38.196 0 36.3538 0H36.342Z" fill="white"/>
</svg>
