<svg width="30" height="31" viewBox="0 0 30 31" fill="none" xmlns="http://www.w3.org/2000/svg">
<path d="M21.6393 10.4034V10.7034C21.5952 12.4942 19.39 13.8087 18.2874 14.2498C17.5376 14.5498 15.9852 15.3967 15.7735 16.3848H29.975C30.1039 14.2386 29.7688 12.0898 28.9925 10.0849C28.2162 8.07989 27.0169 6.2658 25.4764 4.76616C25.6088 6.00714 25.2955 7.25476 24.5925 8.28591C23.8895 9.31706 22.8428 10.0645 21.6393 10.3946V10.4034ZM13.9034 16.3848C13.3508 15.3583 12.4158 14.5912 11.3013 14.2498C10.4891 13.9768 9.75468 13.5119 9.16041 12.8945C8.56614 12.2771 8.12953 11.5255 7.88761 10.7034C7.64945 9.55651 8.24045 6.99813 8.88437 5.79833H15.0237C14.9321 4.78843 15.1349 3.7736 15.6076 2.87652C16.0804 1.97944 16.8028 1.23852 17.6876 0.743313C15.4525 0.335668 13.1539 0.441306 10.9656 1.05225C8.7773 1.66319 6.75639 2.76347 5.05553 4.26998C3.35466 5.77649 2.01831 7.64984 1.1474 9.74855C0.276496 11.8473 -0.106198 14.1165 0.0282235 16.3848H13.9034Z" fill="#C2C1C1"/>
<path d="M21.6391 10.4034C20.8992 10.5926 20.1272 10.62 19.3757 10.4836C18.6243 10.3473 17.9111 10.0504 17.2848 9.6133C16.6585 9.17617 16.1339 8.60909 15.7467 7.95072C15.3594 7.29235 15.1188 6.55819 15.0411 5.79834H20.7923C21.0658 6.63643 21.6038 8.65668 21.6391 10.4034ZM22.1154 28.7356C22.8299 28.3474 23.5091 27.9063 24.153 27.4123H15.8879V28.7356H22.1154ZM18.737 30.0589H15.8879V30.5C16.8582 30.4471 17.8197 30.2971 18.737 30.0589ZM14.1237 28.7356V27.4123H5.85858C6.50251 27.9063 7.18171 28.3474 7.88738 28.7356H14.1237ZM11.2746 30.0589H14.1237V30.5C13.1534 30.4471 12.192 30.2971 11.2746 30.0589ZM15.8879 26.089H25.6526C26.1969 25.5402 26.6982 24.9503 27.1521 24.3246H15.8879V26.089ZM14.1237 24.3246V26.089H4.35904C3.81473 25.5402 3.3134 24.9503 2.85949 24.3246H14.1237ZM15.8879 23.0013H28.0078C28.3341 22.4367 28.6252 21.8544 28.8722 21.2369H15.8879V23.0013ZM14.1237 21.2369V23.0013H2.00387C1.6775 22.4367 1.38641 21.8544 1.13942 21.2369H14.1237ZM15.8879 19.9136H29.3485C29.5691 19.2078 29.7367 18.4668 29.8425 17.7081H15.8879V19.9136ZM14.1237 17.7081V19.9136H0.663096C0.442575 19.2078 0.274979 18.4668 0.169128 17.7081H14.1237Z" fill="#E77817"/>
</svg>
