<svg width="180" height="28" viewBox="0 0 180 28" fill="none" xmlns="http://www.w3.org/2000/svg">
<path d="M26 6.30769C25.0625 6.76923 24.125 6.92308 23.0312 7.07692C24.125 6.46154 24.9062 5.53846 25.2188 4.30769C24.2812 4.92308 23.1875 5.23077 21.9375 5.53846C21 4.61538 19.5938 4 18.1875 4C14.9062 4 12.4062 7.07692 13.1875 10.1538C8.96875 10 5.21875 8 2.5625 4.92308C1.15625 7.23077 1.9375 10.1538 4.125 11.6923C3.34375 11.6923 2.5625 11.3846 1.78125 11.0769C1.78125 13.3846 3.5 15.5385 5.84375 16.1538C5.0625 16.3077 4.28125 16.4615 3.5 16.3077C4.125 18.3077 6 19.8462 8.34375 19.8462C6.46875 21.2308 3.65625 22 1 21.6923C3.34375 23.0769 6 24 8.8125 24C18.3438 24 23.6562 16.1538 23.3437 8.92308C24.4375 8.30769 25.375 7.38462 26 6.30769Z" fill="white"/>
<path d="M64 4.16221C67.2042 4.16221 67.5838 4.17441 68.8491 4.23211C70.0191 4.28551 70.6545 4.48101 71.0774 4.64531C71.6375 4.86301 72.0372 5.12301 72.4571 5.54291C72.8771 5.96292 73.1371 6.36262 73.3548 6.92272C73.5191 7.34562 73.7146 7.98102 73.768 9.15093C73.8257 10.4163 73.8379 10.7958 73.8379 14C73.8379 17.2042 73.8257 17.5837 73.768 18.8491C73.7146 20.0191 73.5191 20.6544 73.3548 21.0773C73.1371 21.6374 72.8771 22.0372 72.4572 22.4571C72.0372 22.877 71.6375 23.137 71.0774 23.3547C70.6545 23.5191 70.0191 23.7145 68.8491 23.7679C67.584 23.8256 67.2045 23.8379 64 23.8379C60.7956 23.8379 60.4162 23.8256 59.151 23.7679C57.981 23.7145 57.3456 23.5191 56.9227 23.3547C56.3626 23.137 55.9629 22.877 55.543 22.4571C55.1231 22.0372 54.863 21.6374 54.6453 21.0773C54.481 20.6544 54.2855 20.0191 54.2321 18.8491C54.1744 17.5837 54.1622 17.2042 54.1622 14C54.1622 10.7958 54.1744 10.4163 54.2321 9.15093C54.2855 7.98102 54.481 7.34562 54.6453 6.92272C54.863 6.36262 55.123 5.96292 55.543 5.54302C55.9629 5.12301 56.3626 4.86301 56.9227 4.64531C57.3456 4.48101 57.981 4.28551 59.151 4.23211C60.4163 4.17441 60.7959 4.16221 64 4.16221ZM64 2C60.741 2 60.3323 2.0138 59.0524 2.0722C57.7752 2.1305 56.9028 2.3333 56.1395 2.63C55.3504 2.9366 54.6812 3.34691 54.0141 4.01411C53.3469 4.68121 52.9366 5.35041 52.63 6.13952C52.3333 6.90282 52.1305 7.77512 52.0722 9.05243C52.0138 10.3323 52 10.741 52 14C52 17.2591 52.0138 17.6677 52.0722 18.9476C52.1305 20.2249 52.3333 21.0972 52.63 21.8605C52.9366 22.6496 53.3469 23.3188 54.0141 23.986C54.6812 24.6531 55.3504 25.0634 56.1395 25.37C56.9028 25.6667 57.7752 25.8695 59.0524 25.9278C60.3323 25.9862 60.741 26 64 26C67.2591 26 67.6678 25.9862 68.9477 25.9278C70.2249 25.8695 71.0973 25.6667 71.8606 25.37C72.6497 25.0634 73.3189 24.6531 73.986 23.986C74.6531 23.3188 75.0635 22.6496 75.3701 21.8605C75.6668 21.0972 75.8696 20.2249 75.9279 18.9476C75.9863 17.6677 76.0001 17.2591 76.0001 14C76.0001 10.741 75.9863 10.3323 75.9279 9.05243C75.8696 7.77512 75.6668 6.90282 75.3701 6.13952C75.0635 5.35041 74.6531 4.68121 73.986 4.01411C73.3189 3.34691 72.6497 2.9366 71.8606 2.63C71.0973 2.3333 70.2249 2.1305 68.9477 2.0722C67.6678 2.0138 67.2591 2 64 2Z" fill="white"/>
<path d="M64.0064 7.84326C60.6031 7.84326 57.8443 10.6021 57.8443 14.0054C57.8443 17.4087 60.6031 20.1675 64.0064 20.1675C67.4098 20.1675 70.1687 17.4087 70.1687 14.0054C70.1687 10.6021 67.4098 7.84326 64.0064 7.84326ZM64.0064 18.0054C61.7973 18.0054 60.0064 16.2145 60.0064 14.0054C60.0064 11.7963 61.7973 10.0054 64.0064 10.0054C66.2156 10.0054 68.0065 11.7963 68.0065 14.0054C68.0065 16.2145 66.2156 18.0054 64.0064 18.0054Z" fill="white"/>
<path d="M71.8504 7.59636C71.8504 8.39156 71.2057 9.03636 70.4104 9.03636C69.6151 9.03636 68.9704 8.39156 68.9704 7.59636C68.9704 6.80105 69.6151 6.15625 70.4104 6.15625C71.2057 6.15625 71.8504 6.80105 71.8504 7.59636Z" fill="white"/>
<path d="M124 14C124 8.5 119.5 4 114 4C108.5 4 104 8.5 104 14C104 19 107.625 23.125 112.375 23.875V16.875H109.875V14H112.375V11.75C112.375 9.25 113.875 7.875 116.125 7.875C117.25 7.875 118.375 8.125 118.375 8.125V10.625H117.125C115.875 10.625 115.5 11.375 115.5 12.125V14H118.25L117.75 16.875H115.375V24C120.375 23.25 124 19 124 14Z" fill="white"/>
<path d="M172.719 3H158.281C156.469 3 155 4.46907 155 6.28125V20.7188C155 22.5309 156.469 24 158.281 24H172.719C174.531 24 176 22.5309 176 20.7188V6.28125C176 4.46907 174.531 3 172.719 3Z" fill="white"/>
<path d="M162.613 18.75H160.381V11.7281H162.613V18.75ZM161.497 10.7438C160.775 10.7438 160.25 10.2187 160.25 9.49687C160.25 8.775 160.841 8.25 161.497 8.25C162.219 8.25 162.744 8.775 162.744 9.49687C162.744 10.2187 162.219 10.7438 161.497 10.7438ZM170.75 18.75H168.519V14.9438C168.519 13.8281 168.059 13.5 167.403 13.5C166.747 13.5 166.091 14.025 166.091 15.0094V18.75H163.859V11.7281H165.959V12.7125C166.156 12.2531 166.944 11.5312 168.059 11.5312C169.306 11.5312 170.619 12.2531 170.619 14.4187V18.75H170.75Z" fill="#2867B2"/>
</svg>
