<svg width="18" height="17" viewBox="0 0 18 17" fill="none" xmlns="http://www.w3.org/2000/svg">
<g clip-path="url(#clip0_1_2345)">
<path d="M2.74817 8.43103C2.74817 9.2535 2.91017 10.0679 3.22492 10.8278C3.53966 11.5877 4.001 12.2781 4.58258 12.8597C5.16416 13.4413 5.85459 13.9026 6.61446 14.2173C7.37433 14.5321 8.18875 14.6941 9.01123 14.6941C9.8337 14.6941 10.6481 14.5321 11.408 14.2173C12.1679 13.9026 12.8583 13.4413 13.4399 12.8597C14.0215 12.2781 14.4828 11.5877 14.7975 10.8278C15.1123 10.0679 15.2743 9.2535 15.2743 8.43103C15.2743 6.76996 14.6144 5.17693 13.4399 4.00238C12.2653 2.82782 10.6723 2.16797 9.01123 2.16797C7.35016 2.16797 5.75713 2.82782 4.58258 4.00238C3.40803 5.17693 2.74817 6.76996 2.74817 8.43103Z" fill="#476FB5" stroke="#476FB5" stroke-width="1.39179" stroke-linecap="round" stroke-linejoin="round"/>
<path d="M9.01123 6.34338H9.01819" stroke="white" stroke-width="1.39179" stroke-linecap="round" stroke-linejoin="round"/>
<path d="M8.31531 8.43103H9.0112V11.2146H9.7071" stroke="white" stroke-width="1.39179" stroke-linecap="round" stroke-linejoin="round"/>
</g>
<defs>
<clipPath id="clip0_1_2345">
<rect width="16.7015" height="16.7015" fill="white" transform="translate(0.660156 0.0803223)"/>
</clipPath>
</defs>
</svg>
