<svg width="196" height="32" viewBox="0 0 196 32" fill="none" xmlns="http://www.w3.org/2000/svg">
<path d="M59.9417 26.65H55.1787V5.35107H59.9417V13.8087H63.5286L69.154 5.35107H74.456L67.243 15.7236L74.8676 26.65H69.5951L63.5286 17.9483H59.9417V26.65Z" fill="white"/>
<path d="M82.9431 26.6493H78.0233L87.1083 5.35034H92.2535L101.309 26.6493H96.3892L94.7721 22.6598H84.6092L82.9529 26.6493H82.9431ZM86.089 18.8863H93.2727L90.1562 11.2453C89.9308 10.6633 89.774 10.1189 89.676 9.57445C89.5486 10.2128 89.3918 10.7572 89.1664 11.2453L86.089 18.8863Z" fill="white"/>
<path d="M126.604 5.34082H131.024V26.6397H126.261V13.5262L120.381 22.0777H117.617L111.737 13.4981V26.6491H106.974V5.35019H111.394L119.018 16.4268L126.614 5.35019L126.604 5.34082Z" fill="white"/>
<path d="M141.608 26.6493H136.688L145.773 5.35034H150.918L159.974 26.6493H155.054L153.437 22.6598H143.274L141.618 26.6493H141.608ZM144.754 18.8863H151.938L148.821 11.2453C148.596 10.6633 148.439 10.1189 148.341 9.57445C148.214 10.2128 148.057 10.7572 147.831 11.2453L144.754 18.8863Z" fill="white"/>
<path d="M170.392 26.6493H165.629V5.35034H174.782C177.105 5.35034 179.036 5.77277 180.819 6.77717C182.564 7.78157 183.613 9.6965 183.613 12.2873C183.613 15.5164 181.996 17.6097 178.752 18.6141L185.396 26.6493H179.898L173.891 19.196H170.392V26.6493ZM170.392 9.36794V15.3944H174.998C177.154 15.3944 178.742 14.4181 178.742 12.3812C178.742 10.3442 177.184 9.36794 174.998 9.36794H170.392Z" fill="white"/>
<path d="M191.237 5.34082H196V26.6397H191.237V5.34082Z" fill="white"/>
<path d="M27.9925 31.9908C27.2771 31.9908 26.5715 31.728 26.0227 31.2117L13.4194 19.1401C12.3316 18.0981 12.3316 16.4179 13.4194 15.3759C14.5072 14.334 16.2713 14.334 17.3493 15.3759L29.9526 27.4475C31.0405 28.4895 31.0405 30.1697 29.9526 31.2117C29.4136 31.728 28.6982 31.9908 27.9827 31.9908H27.9925Z" fill="white"/>
<path d="M3.57957 15.8076C2.86415 15.8076 2.15852 15.5447 1.6097 15.0285C0.521863 13.9865 0.521863 12.3063 1.6097 11.2643L9.11679 4.07394C10.2046 3.03199 11.9687 3.03199 13.0467 4.07394C14.1346 5.11589 14.1346 6.79616 13.0467 7.83811L5.53965 15.0285C5.00063 15.5447 4.2852 15.8076 3.56978 15.8076H3.57957Z" fill="white"/>
<path d="M30.3542 0H21.6907C20.152 0 18.9074 1.19214 18.9074 2.66588C18.9074 4.13963 20.152 5.33176 21.6907 5.33176H23.9153L0.815881 27.4567C-0.27196 28.4987 -0.27196 30.1789 0.815881 31.2209C1.3549 31.7372 2.07032 32 2.78575 32C3.50118 32 4.2068 31.7372 4.75562 31.2209L27.5807 9.35876V10.9639C27.5807 12.4377 28.8253 13.6298 30.364 13.6298C31.9027 13.6298 33.1473 12.4377 33.1473 10.9639V2.66588C33.1473 1.19214 31.9027 0 30.364 0H30.3542Z" fill="white"/>
</svg>
