<svg width="50" height="50" viewBox="0 0 50 50" fill="none" xmlns="http://www.w3.org/2000/svg">
<rect width="50" height="50" rx="6" fill="#476FB5"/>
<path d="M38.3334 23.6666C38.3334 23.0114 38.3263 22.3562 38.3123 21.6991C38.2252 17.6117 38.1816 15.568 36.6735 14.0541C35.1652 12.5402 33.0663 12.4875 28.8683 12.382C26.281 12.317 23.7191 12.317 21.1318 12.382C16.9338 12.4875 14.8348 12.5402 13.3266 14.0541C11.8184 15.568 11.7749 17.6117 11.6877 21.6991C11.6597 23.0134 11.6597 24.3198 11.6877 25.6341C11.7749 29.7215 11.8185 31.7651 13.3266 33.2791C14.8348 34.793 16.9338 34.8457 21.1318 34.9511C22.4255 34.9837 23.7127 34.9999 25 34.9999" stroke="white" stroke-width="1.5" stroke-linecap="round" stroke-linejoin="round"/>
<path d="M11.6667 15.6667L20.884 20.8996C24.2516 22.8114 25.7484 22.8114 29.116 20.8996L38.3334 15.6667" stroke="white" stroke-width="1.5" stroke-linejoin="round"/>
<path d="M37.3333 37.6667C37.3333 38.2189 37.7811 38.6667 38.3333 38.6667C38.8856 38.6667 39.3333 38.2189 39.3333 37.6667H37.3333ZM31.6364 34.3837C32.0324 34.7687 32.6655 34.7597 33.0504 34.3636C33.4353 33.9676 33.4264 33.3345 33.0303 32.9496L31.6364 34.3837ZM33.0303 27.7171C33.4264 27.3321 33.4353 26.6991 33.0504 26.3031C32.6655 25.9069 32.0324 25.898 31.6364 26.2829L33.0303 27.7171ZM29 31.3333H33V29.3333H29V31.3333ZM37.3333 35.6667V37.6667H39.3333V35.6667H37.3333ZM33 31.3333C35.3932 31.3333 37.3333 33.2735 37.3333 35.6667H39.3333C39.3333 32.1688 36.4979 29.3333 33 29.3333V31.3333ZM28 30.3333C28 30.6777 28.1187 30.9743 28.2339 31.1896C28.3533 31.4128 28.508 31.6203 28.6647 31.8043C28.9776 32.1716 29.38 32.5391 29.7673 32.8673C30.1591 33.1992 30.5712 33.5207 30.9104 33.7871C31.2723 34.0713 31.5147 34.2655 31.6364 34.3837L33.0303 32.9496C32.8149 32.7401 32.472 32.4705 32.1457 32.2143C31.7967 31.9401 31.4176 31.6441 31.0603 31.3415C30.6987 31.0349 30.3941 30.7503 30.1873 30.5075C30.0843 30.3865 30.0259 30.2993 29.9972 30.2459C29.9644 30.1845 30 30.2224 30 30.3333H28ZM31.6364 26.2829C31.5147 26.4012 31.2723 26.5953 30.9104 26.8796C30.5712 27.146 30.1591 27.4675 29.7673 27.7993C29.38 28.1276 28.9776 28.4951 28.6647 28.8624C28.508 29.0464 28.3533 29.2539 28.2339 29.4771C28.1187 29.6924 28 29.9889 28 30.3333H30C30 30.4443 29.9644 30.4821 29.9972 30.4208C30.0259 30.3673 30.0843 30.2801 30.1873 30.1592C30.3941 29.9164 30.6987 29.6317 31.0603 29.3252C31.4176 29.0225 31.7967 28.7265 32.1457 28.4524C32.472 28.1961 32.8149 27.9265 33.0303 27.7171L31.6364 26.2829Z" fill="white"/>
</svg>
