<svg width="76" height="20" viewBox="0 0 76 20" fill="none" xmlns="http://www.w3.org/2000/svg">
<mask id="mask0_1_2298" style="mask-type:luminance" maskUnits="userSpaceOnUse" x="0" y="2" width="20" height="15">
<rect x="0.861938" y="2.78345" width="18.5572" height="13.9179" fill="white"/>
</mask>
<g mask="url(#mask0_1_2298)">
<path fill-rule="evenodd" clip-rule="evenodd" d="M0.861938 2.78345H19.4192V16.7014H0.861938V2.78345Z" fill="#FAFDFF"/>
<path fill-rule="evenodd" clip-rule="evenodd" d="M13.0401 2.78345H19.4191V16.7014H13.0401V2.78345Z" fill="#009933"/>
<path fill-rule="evenodd" clip-rule="evenodd" d="M0.861938 2.78345H7.24098V16.7014H0.861938V2.78345Z" fill="#009933"/>
</g>
<path d="M25.7769 13.7424V5.9484H26.9571L30.8653 11.8162V5.9484H32.0455V13.7424H30.8653L26.9571 7.87464V13.7424H25.7769ZM37.0123 13.876C36.2774 13.876 35.6353 13.709 35.086 13.375C34.5367 13.041 34.1099 12.5733 33.8056 11.9721C33.5012 11.3708 33.3491 10.6694 33.3491 9.86769C33.3491 9.07344 33.505 8.37197 33.8167 7.7633C34.1285 7.15462 34.5701 6.67956 35.1417 6.3381C35.7207 5.98923 36.4036 5.81479 37.1904 5.81479C38.0812 5.81479 38.8235 6.03005 39.4173 6.46058C40.0111 6.89111 40.3971 7.48494 40.5753 8.24207H39.2391C39.1204 7.82639 38.8866 7.49978 38.5377 7.26225C38.1888 7.02472 37.7397 6.90595 37.1904 6.90595C36.3739 6.90595 35.7318 7.16947 35.2642 7.69649C34.7965 8.22352 34.5627 8.95096 34.5627 9.87882C34.5627 10.8067 34.7928 11.5304 35.253 12.05C35.7133 12.5696 36.3257 12.8294 37.0902 12.8294C37.8622 12.8294 38.4412 12.6104 38.8272 12.1725C39.2206 11.7345 39.4507 11.1518 39.5175 10.4244H37.402V9.51139H40.7089V13.7424H39.6288L39.5286 12.5956C39.2688 13.0039 38.9422 13.3193 38.5488 13.542C38.1554 13.7647 37.6432 13.876 37.0123 13.876ZM42.1413 13.7424V5.9484H43.3215L47.2297 11.8162V5.9484H48.4099V13.7424H47.2297L43.3215 7.87464V13.7424H42.1413Z" fill="#292929"/>
<g clip-path="url(#clip0_1_2298)">
<path d="M60.4247 7.30676L65.296 12.178L70.1673 7.30676" stroke="#292929" stroke-width="1.39179" stroke-linecap="round" stroke-linejoin="round"/>
</g>
<defs>
<clipPath id="clip0_1_2298">
<rect width="19.4851" height="19.4851" fill="white" transform="translate(55.5535 -0.00012207)"/>
</clipPath>
</defs>
</svg>
