<svg width="63" height="18" viewBox="0 0 63 18" fill="none" xmlns="http://www.w3.org/2000/svg">
<path d="M10.8945 1.21338C10.1092 0.673532 9.0845 0.402954 7.82034 0.402954H2.92619C2.53864 0.402954 2.32454 0.596771 2.28387 0.984033L0.295669 13.4642C0.275007 13.5868 0.305673 13.6989 0.387389 13.8008C0.468637 13.9029 0.570829 13.9536 0.693215 13.9536H3.01791C3.42564 13.9536 3.64975 13.7603 3.69089 13.3726L4.2414 10.008C4.2615 9.84495 4.33321 9.71237 4.4556 9.61027C4.57789 9.50836 4.73085 9.4417 4.91438 9.41113C5.09791 9.38083 5.27098 9.36559 5.43441 9.36559C5.59737 9.36559 5.791 9.37588 6.01567 9.39617C6.23978 9.41655 6.38265 9.42646 6.44389 9.42646C8.1975 9.42646 9.57395 8.93233 10.5733 7.94305C11.5722 6.95414 12.0723 5.58292 12.0723 3.82884C12.0723 2.62583 11.6794 1.75407 10.8945 1.21338ZM8.37103 4.96071C8.26875 5.67455 8.00396 6.14334 7.57575 6.36773C7.14744 6.5924 6.5357 6.70413 5.74051 6.70413L4.73104 6.7347L5.25115 3.46168C5.29173 3.23757 5.42422 3.12538 5.6487 3.12538H6.23006C7.04535 3.12538 7.63708 3.2429 8.00415 3.47702C8.37103 3.71169 8.49342 4.20638 8.37103 4.96071Z" fill="#003087"/>
<path d="M62.5439 0.402954H60.2806C60.0557 0.402954 59.9233 0.51515 59.8829 0.739541L57.8946 13.4643L57.8639 13.5254C57.8639 13.6279 57.9048 13.7243 57.9865 13.8161C58.0676 13.9077 58.17 13.9536 58.2922 13.9536H60.3113C60.6981 13.9536 60.9123 13.7603 60.9537 13.3726L62.9419 0.861553V0.831167C62.9418 0.545723 62.8088 0.402954 62.5439 0.402954Z" fill="#009CDE"/>
<path d="M35.1954 5.32781C35.1954 5.22609 35.1544 5.12904 35.0733 5.03741C34.9915 4.94569 34.8996 4.8996 34.798 4.8996H32.4426C32.2178 4.8996 32.0344 5.00207 31.892 5.20542L28.6496 9.97747L27.3038 5.38914C27.2014 5.06312 26.9773 4.8996 26.6309 4.8996H24.3364C24.2342 4.8996 24.1425 4.9456 24.0614 5.03741C23.9796 5.12904 23.939 5.22618 23.939 5.32781C23.939 5.36895 24.1379 5.97022 24.5354 7.13257C24.933 8.29519 25.3612 9.54935 25.8201 10.8953C26.279 12.241 26.5184 12.9551 26.5389 13.0362C24.8666 15.3203 24.0307 16.5439 24.0307 16.7068C24.0307 16.9721 24.1631 17.1045 24.4284 17.1045H26.7837C27.0079 17.1045 27.1914 17.0028 27.3343 16.7988L35.1345 5.54192C35.175 5.50143 35.1954 5.43038 35.1954 5.32781Z" fill="#003087"/>
<path d="M57.1304 4.8991H54.8056C54.5199 4.8991 54.3471 5.23569 54.2859 5.90868C53.7551 5.0933 52.7871 4.685 51.3798 4.685C49.9115 4.685 48.6622 5.23569 47.6327 6.33689C46.6028 7.43809 46.0881 8.73329 46.0881 10.2217C46.0881 11.4251 46.4397 12.3835 47.1432 13.0969C47.8467 13.8112 48.7898 14.1676 49.9729 14.1676C50.5641 14.1676 51.1657 14.045 51.7774 13.8005C52.3893 13.5558 52.868 13.2297 53.2153 12.8217C53.2153 12.8422 53.1945 12.9338 53.1541 13.0969C53.1129 13.2603 53.0928 13.3829 53.0928 13.4639C53.0928 13.7906 53.225 13.9533 53.4905 13.9533H55.6013C55.9882 13.9533 56.2129 13.7599 56.2739 13.3722L57.5282 5.38856C57.5483 5.26617 57.5177 5.15416 57.4364 5.05206C57.3546 4.95025 57.2528 4.8991 57.1304 4.8991ZM53.1387 10.9252C52.6187 11.4351 51.9917 11.6898 51.2576 11.6898C50.6659 11.6898 50.1871 11.527 49.8199 11.2005C49.4527 10.8747 49.2692 10.426 49.2692 9.85459C49.2692 9.10055 49.5241 8.46281 50.034 7.94287C50.5433 7.42285 51.176 7.16284 51.9306 7.16284C52.501 7.16284 52.9752 7.33113 53.3528 7.66743C53.7298 8.00402 53.9188 8.46804 53.9188 9.0595C53.9188 9.79354 53.6587 10.4157 53.1387 10.9252Z" fill="#009CDE"/>
<path d="M22.3794 4.8991H20.0547C19.7687 4.8991 19.5958 5.23569 19.5345 5.90868C18.9839 5.0933 18.0152 4.685 16.6286 4.685C15.1603 4.685 13.9111 5.23569 12.8814 6.33689C11.8515 7.43809 11.3368 8.73329 11.3368 10.2217C11.3368 11.4251 11.6886 12.3835 12.3922 13.0969C13.0957 13.8112 14.0386 14.1676 15.2216 14.1676C15.7923 14.1676 16.384 14.045 16.9956 13.8005C17.6074 13.5558 18.0968 13.2297 18.4639 12.8217C18.3821 13.0664 18.3415 13.2806 18.3415 13.4639C18.3415 13.7906 18.474 13.9533 18.7392 13.9533H20.8498C21.2369 13.9533 21.4615 13.7599 21.5227 13.3722L22.7768 5.38856C22.7969 5.26617 22.7664 5.15416 22.6851 5.05206C22.6035 4.95025 22.5015 4.8991 22.3794 4.8991ZM18.3875 10.9404C17.8674 11.4406 17.2299 11.6898 16.4758 11.6898C15.8841 11.6898 15.41 11.527 15.0534 11.2005C14.6963 10.8747 14.518 10.426 14.518 9.85459C14.518 9.10055 14.7728 8.46281 15.2828 7.94287C15.7923 7.42285 16.4245 7.16284 17.1793 7.16284C17.75 7.16284 18.2241 7.33113 18.6017 7.66743C18.9787 8.00402 19.1676 8.46804 19.1676 9.0595C19.1676 9.81401 18.9076 10.4413 18.3875 10.9404Z" fill="#003087"/>
<path d="M45.643 1.21338C44.8579 0.673532 43.8333 0.402954 42.569 0.402954H37.7054C37.2973 0.402954 37.0729 0.596771 37.0324 0.984033L35.0442 13.4642C35.0236 13.5868 35.0541 13.6989 35.1359 13.8008C35.2169 13.9029 35.3194 13.9536 35.4418 13.9536H37.9499C38.1946 13.9536 38.3576 13.8212 38.4393 13.5561L38.99 10.008C39.0102 9.84495 39.0817 9.71237 39.2041 9.61027C39.3265 9.50836 39.4793 9.4417 39.663 9.41113C39.8465 9.38083 40.0195 9.36559 40.183 9.36559C40.346 9.36559 40.5396 9.37588 40.764 9.39617C40.9883 9.41655 41.1315 9.42646 41.1922 9.42646C42.9461 9.42646 44.3224 8.93233 45.3218 7.94305C46.321 6.95414 46.8206 5.58292 46.8206 3.82884C46.8207 2.62583 46.4279 1.75407 45.643 1.21338ZM42.5077 6.24535C42.0591 6.55117 41.3861 6.70404 40.489 6.70404L39.5101 6.73461L40.0302 3.46159C40.0706 3.23748 40.2031 3.12528 40.4277 3.12528H40.9781C41.4266 3.12528 41.7835 3.14567 42.049 3.18634C42.3137 3.22738 42.569 3.35454 42.8137 3.56864C43.0585 3.78275 43.1807 4.0939 43.1807 4.50164C43.1807 5.35825 42.9561 5.93924 42.5077 6.24535Z" fill="#009CDE"/>
</svg>
