<svg width="50" height="50" viewBox="0 0 50 50" fill="none" xmlns="http://www.w3.org/2000/svg">
<rect width="50" height="50" rx="6" fill="#476FB5"/>
<path d="M25 38.3334C32.3638 38.3334 38.3334 32.3638 38.3334 25.0001C38.3334 17.6363 32.3638 11.6667 25 11.6667C17.6362 11.6667 11.6667 17.6363 11.6667 25.0001C11.6667 26.8386 12.0388 28.5902 12.7118 30.1837C13.0837 31.0642 13.2697 31.5046 13.2927 31.8374C13.3158 32.1702 13.2178 32.5362 13.0219 33.2683L11.6667 38.3334L16.7317 36.9782C17.4639 36.7823 17.8299 36.6843 18.1627 36.7074C18.4955 36.7303 18.9358 36.9163 19.8165 37.2883C21.41 37.9613 23.1615 38.3334 25 38.3334Z" stroke="white" stroke-width="1.5" stroke-linejoin="round"/>
<path d="M20.4508 25.503L21.6121 24.0607C22.1015 23.4529 22.7065 22.887 22.754 22.0776C22.7658 21.8732 22.6221 20.9553 22.3344 19.1197C22.2213 18.3983 21.5478 18.3333 20.9644 18.3333C20.2042 18.3333 19.824 18.3333 19.4466 18.5057C18.9695 18.7236 18.4797 19.3363 18.3722 19.8497C18.2872 20.2559 18.3504 20.5357 18.4768 21.0955C19.0136 23.473 20.2731 25.821 22.226 27.7739C24.1789 29.7269 26.5269 30.9863 28.9044 31.5231C29.4641 31.6495 29.744 31.7127 30.1502 31.6277C30.6636 31.5202 31.2762 31.0305 31.4942 30.5533C31.6666 30.1758 31.6666 29.7958 31.6666 29.0355C31.6666 28.4521 31.6016 27.7786 30.8801 27.6655C29.0445 27.3778 28.1268 27.2341 27.9222 27.2459C27.1129 27.2934 26.547 27.8983 25.9392 28.3878L24.4969 29.549" stroke="white" stroke-width="1.5"/>
</svg>
